<?xml version="1.0" encoding="UTF-8"?><svg id="Capa_1" xmlns="http://www.w3.org/2000/svg" viewBox="0 0 16 16"><defs><style>.cls-1{fill:#000;}.cls-1,.cls-2{stroke-width:0px;}.cls-2{fill:#f2f2f2;}</style></defs><rect class="cls-2" width="16" height="16" rx="2.44" ry="2.44"/><path class="cls-1" d="M7.97,8.78v-1.34s-3.25,0-3.25,0v-.19l3.9-5.11h.49v4.94h1.03c.2,0,.37.16.37.37h0s-1.39,0-1.39,0v2.48h0c-.63,0-1.14-.51-1.14-1.14ZM7.97,7.06h0v-3.71l-1.11,1.48c-.69.92-.04,2.24,1.11,2.24Z"/><path class="cls-1" d="M8.57,13.86c-.77,0-1.42-.27-1.94-.82-.52-.54-.78-1.29-.78-2.24s.26-1.7.78-2.25c.52-.55,1.16-.82,1.94-.82s1.41.27,1.93.82c.52.55.78,1.3.78,2.25s-.26,1.7-.78,2.24c-.52.54-1.16.82-1.93.82ZM8.57,13.63c.54,0,.92-.24,1.16-.71.24-.48.36-1.18.36-2.11s-.12-1.64-.36-2.12c-.24-.48-.63-.71-1.16-.71s-.92.24-1.16.71c-.24.48-.36,1.18-.36,2.12s.12,1.64.35,2.11c.24.47.63.71,1.17.71Z"/></svg>